<?xml version="1.0" encoding="utf-8"?>
<!-- Generator: Adobe Illustrator 22.0.1, SVG Export Plug-In . SVG Version: 6.00 Build 0)  -->
<svg version="1.1" id="Слой_1" xmlns="http://www.w3.org/2000/svg" xmlns:xlink="http://www.w3.org/1999/xlink" x="0px" y="0px"
	 viewBox="0 0 186 33" style="enable-background:new 0 0 186 33;" xml:space="preserve">
<style type="text/css">
	.st0{fill:#444444;}
	.st1{fill:#848C9F;}
	.st2{fill:none;stroke:#2FAAF7;stroke-width:3;stroke-miterlimit:10;}
</style>
<g>
	<path class="st0" d="M51.7,9.1c0.5,0.6,0.8,1.4,0.8,2.3c0,1.2-0.4,2.1-1.3,2.8c-0.9,0.6-2.2,1-3.9,1h-6.4v-14h6
		c1.6,0,2.8,0.3,3.6,0.9c0.9,0.6,1.3,1.5,1.3,2.7c0,0.8-0.2,1.4-0.6,2S50.2,7.7,49.6,8C50.5,8.2,51.2,8.5,51.7,9.1z M42.2,2.4v5.1
		h4.5c1.1,0,2-0.2,2.6-0.6c0.6-0.4,0.9-1.1,0.9-1.9c0-0.8-0.3-1.5-0.9-1.9s-1.5-0.6-2.6-0.6H42.2z M50,13.3c0.6-0.4,1-1.1,1-2
		c0-1.7-1.3-2.6-3.8-2.6h-4.9V14h4.9C48.4,14,49.4,13.7,50,13.3z"/>
	<path class="st0" d="M64.7,10.4h-8.8c0.1,1.1,0.5,2,1.3,2.6c0.8,0.7,1.7,1,2.9,1c0.7,0,1.3-0.1,1.8-0.3s1-0.6,1.4-1l0.8,0.9
		c-0.5,0.6-1,1-1.8,1.3s-1.5,0.4-2.3,0.4c-1.1,0-2-0.2-2.9-0.7s-1.5-1.1-1.9-1.9c-0.5-0.8-0.7-1.7-0.7-2.8s0.2-1.9,0.7-2.8
		c0.4-0.8,1.1-1.4,1.8-1.9c0.8-0.5,1.7-0.7,2.6-0.7c1,0,1.8,0.2,2.6,0.7C63,5.7,63.6,6.3,64,7.1c0.4,0.8,0.7,1.7,0.7,2.8L64.7,10.4z
		 M57,6.8c-0.7,0.6-1.1,1.5-1.2,2.5h7.5c-0.1-1-0.5-1.9-1.2-2.5c-0.7-0.6-1.5-1-2.6-1C58.6,5.8,57.7,6.1,57,6.8z"/>
	<path class="st0" d="M79.6,1.2v14h-1.5V8.7h-8.8v6.5h-1.5v-14h1.5v6.2h8.8V1.2H79.6z"/>
	<path class="st0" d="M93,10.4h-8.8c0.1,1.1,0.5,2,1.3,2.6c0.8,0.7,1.7,1,2.9,1c0.7,0,1.3-0.1,1.8-0.3c0.5-0.2,1-0.6,1.4-1l0.8,0.9
		c-0.5,0.6-1,1-1.8,1.3s-1.5,0.4-2.3,0.4c-1.1,0-2-0.2-2.9-0.7c-0.8-0.5-1.5-1.1-2-1.9c-0.5-0.8-0.7-1.7-0.7-2.8S83,8,83.5,7.2
		c0.4-0.8,1.1-1.4,1.8-1.9c0.8-0.5,1.7-0.7,2.6-0.7c1,0,1.8,0.2,2.6,0.7s1.4,1.1,1.8,1.9S93,8.9,93,9.9L93,10.4z M85.4,6.8
		c-0.7,0.6-1.1,1.5-1.2,2.5h7.5c-0.1-1-0.5-1.9-1.2-2.5c-0.7-0.6-1.5-1-2.6-1C86.9,5.8,86.1,6.1,85.4,6.8z"/>
	<path class="st0" d="M102.5,5.6c0.7,0.7,1.1,1.7,1.1,3v6.5h-1.4v-1.6c-0.3,0.5-0.8,1-1.4,1.3c-0.6,0.3-1.4,0.5-2.2,0.5
		c-1.2,0-2.1-0.3-2.8-0.8c-0.7-0.6-1-1.3-1-2.2c0-0.9,0.3-1.6,1-2.2c0.6-0.5,1.7-0.8,3.1-0.8h3.3V8.6c0-0.9-0.3-1.6-0.8-2.1
		c-0.5-0.5-1.2-0.7-2.2-0.7c-0.7,0-1.3,0.1-1.9,0.3c-0.6,0.2-1.1,0.5-1.6,0.9L95,6c0.5-0.5,1.2-0.8,1.9-1c0.7-0.2,1.5-0.4,2.4-0.4
		C100.7,4.6,101.7,4.9,102.5,5.6z M100.9,13.6c0.6-0.4,1-0.9,1.3-1.6v-1.7h-3.3c-1.8,0-2.7,0.6-2.7,1.9c0,0.6,0.2,1.1,0.7,1.5
		c0.5,0.4,1.1,0.5,2,0.5C99.6,14.2,100.3,14,100.9,13.6z"/>
	<path class="st0" d="M107.4,0.3h1.4v14.8h-1.4V0.3z"/>
	<path class="st0" d="M118.4,14.5c-0.3,0.2-0.6,0.4-1,0.6c-0.4,0.1-0.8,0.2-1.2,0.2c-1,0-1.7-0.3-2.3-0.8c-0.5-0.5-0.8-1.3-0.8-2.3
		V5.9h-1.9V4.7h1.9V2.4h1.4v2.3h3.2v1.2h-3.2v6.3c0,0.6,0.2,1.1,0.5,1.4c0.3,0.3,0.8,0.5,1.3,0.5c0.3,0,0.6,0,0.8-0.1
		s0.5-0.2,0.7-0.4L118.4,14.5z"/>
	<path class="st0" d="M129.5,5.7c0.8,0.8,1.2,1.9,1.2,3.4v6.1h-1.4v-6c0-1.1-0.3-1.9-0.8-2.5c-0.5-0.6-1.3-0.9-2.3-0.9
		c-1.1,0-2,0.3-2.7,1c-0.7,0.7-1,1.6-1,2.8v5.5H121V0.3h1.4v6.2c0.4-0.6,0.9-1.1,1.6-1.4c0.7-0.3,1.5-0.5,2.3-0.5
		C127.7,4.6,128.7,5,129.5,5.7z"/>
	<path class="st0" d="M143.2,4.7l-5.3,11.8c-0.4,1-0.9,1.7-1.5,2.1c-0.6,0.4-1.2,0.6-2,0.6c-0.5,0-1-0.1-1.4-0.2
		c-0.4-0.2-0.8-0.4-1.1-0.7l0.7-1.1c0.5,0.5,1.2,0.8,1.9,0.8c0.5,0,0.9-0.1,1.2-0.4c0.3-0.3,0.7-0.7,1-1.4l0.5-1l-4.7-10.5h1.5
		l4,8.9l4-8.9H143.2z"/>
</g>
<g>
	<path class="st1" d="M46.8,25.3c0,0.9-0.3,1.5-0.9,2S44.4,28,43.3,28h-1v3.4h-1v-8.6h2.2C45.7,22.8,46.8,23.6,46.8,25.3z
		 M42.3,27.1h0.9c0.9,0,1.5-0.1,1.9-0.4s0.6-0.7,0.6-1.4c0-0.6-0.2-1-0.6-1.3s-0.9-0.4-1.7-0.4h-1.1V27.1z"/>
	<path class="st1" d="M51.3,24.8c0.3,0,0.5,0,0.8,0.1L52,25.8c-0.3-0.1-0.5-0.1-0.7-0.1c-0.5,0-1,0.2-1.3,0.6s-0.6,0.9-0.6,1.6v3.4
		h-1v-6.4h0.8l0.1,1.2h0c0.2-0.4,0.5-0.7,0.9-1S50.9,24.8,51.3,24.8z"/>
	<path class="st1" d="M56,31.4c-0.9,0-1.7-0.3-2.2-0.9s-0.8-1.4-0.8-2.4c0-1,0.3-1.9,0.8-2.5s1.2-0.9,2.1-0.9c0.8,0,1.4,0.3,1.9,0.8
		s0.7,1.2,0.7,2.1v0.6H54c0,0.8,0.2,1.3,0.6,1.7s0.9,0.6,1.5,0.6c0.7,0,1.4-0.1,2.1-0.4V31c-0.3,0.1-0.7,0.3-1,0.3
		S56.5,31.4,56,31.4z M55.8,25.6c-0.5,0-0.9,0.2-1.2,0.5S54,26.9,54,27.5h3.4c0-0.6-0.1-1.1-0.4-1.4S56.3,25.6,55.8,25.6z"/>
	<path class="st1" d="M61.4,31.3L59,24.9h1l1.4,3.8c0.3,0.9,0.5,1.5,0.6,1.7h0c0-0.2,0.2-0.6,0.4-1.3s0.7-2.1,1.5-4.3h1l-2.4,6.4
		H61.4z"/>
	<path class="st1" d="M68.8,31.4c-0.9,0-1.7-0.3-2.2-0.9s-0.8-1.4-0.8-2.4c0-1,0.3-1.9,0.8-2.5s1.2-0.9,2.1-0.9
		c0.8,0,1.4,0.3,1.9,0.8s0.7,1.2,0.7,2.1v0.6h-4.4c0,0.8,0.2,1.3,0.6,1.7s0.9,0.6,1.5,0.6c0.7,0,1.4-0.1,2.1-0.4V31
		c-0.3,0.1-0.7,0.3-1,0.3S69.2,31.4,68.8,31.4z M68.5,25.6c-0.5,0-0.9,0.2-1.2,0.5s-0.5,0.8-0.5,1.4h3.4c0-0.6-0.1-1.1-0.4-1.4
		S69,25.6,68.5,25.6z"/>
	<path class="st1" d="M77.2,31.3v-4.2c0-0.5-0.1-0.9-0.4-1.2s-0.6-0.4-1.1-0.4c-0.7,0-1.2,0.2-1.5,0.5s-0.5,1-0.5,1.8v3.4h-1v-6.4
		h0.8l0.2,0.9h0c0.2-0.3,0.5-0.6,0.8-0.7s0.8-0.3,1.2-0.3c0.8,0,1.4,0.2,1.7,0.6s0.6,1,0.6,1.8v4.2H77.2z"/>
	<path class="st1" d="M82.2,30.6c0.2,0,0.3,0,0.5,0s0.3-0.1,0.4-0.1v0.7c-0.1,0.1-0.3,0.1-0.5,0.1s-0.4,0-0.6,0
		c-1.2,0-1.9-0.7-1.9-2v-3.8h-0.9v-0.5l0.9-0.4l0.4-1.4h0.6v1.5h1.9v0.8h-1.9v3.8c0,0.4,0.1,0.7,0.3,0.9S81.9,30.6,82.2,30.6z"/>
	<path class="st1" d="M84.3,23.2c0-0.2,0.1-0.4,0.2-0.5s0.2-0.2,0.4-0.2c0.2,0,0.3,0.1,0.4,0.2s0.2,0.3,0.2,0.5s-0.1,0.4-0.2,0.5
		s-0.2,0.2-0.4,0.2c-0.2,0-0.3-0.1-0.4-0.2S84.3,23.4,84.3,23.2z M85.4,31.3h-1v-6.4h1V31.3z"/>
	<path class="st1" d="M93,28.1c0,1-0.3,1.9-0.8,2.5s-1.3,0.9-2.2,0.9c-0.6,0-1.1-0.1-1.5-0.4s-0.8-0.7-1-1.2s-0.4-1.1-0.4-1.8
		c0-1,0.3-1.9,0.8-2.4s1.3-0.9,2.2-0.9c0.9,0,1.6,0.3,2.1,0.9S93,27.1,93,28.1z M88.1,28.1c0,0.8,0.2,1.4,0.5,1.9s0.8,0.6,1.4,0.6
		s1.1-0.2,1.5-0.6s0.5-1.1,0.5-1.9c0-0.8-0.2-1.4-0.5-1.9s-0.8-0.6-1.5-0.6c-0.6,0-1.1,0.2-1.4,0.6S88.1,27.3,88.1,28.1z"/>
	<path class="st1" d="M99.1,31.3v-4.2c0-0.5-0.1-0.9-0.4-1.2s-0.6-0.4-1.1-0.4c-0.7,0-1.2,0.2-1.5,0.5s-0.5,1-0.5,1.8v3.4h-1v-6.4
		h0.8l0.2,0.9h0c0.2-0.3,0.5-0.6,0.8-0.7s0.8-0.3,1.2-0.3c0.8,0,1.4,0.2,1.7,0.6s0.6,1,0.6,1.8v4.2H99.1z"/>
	<path class="st1" d="M110.7,28.1c0,1-0.3,1.9-0.8,2.5s-1.3,0.9-2.2,0.9c-0.6,0-1.1-0.1-1.5-0.4s-0.8-0.7-1-1.2s-0.4-1.1-0.4-1.8
		c0-1,0.3-1.9,0.8-2.4s1.3-0.9,2.2-0.9c0.9,0,1.6,0.3,2.1,0.9S110.7,27.1,110.7,28.1z M105.8,28.1c0,0.8,0.2,1.4,0.5,1.9
		s0.8,0.6,1.4,0.6s1.1-0.2,1.5-0.6s0.5-1.1,0.5-1.9c0-0.8-0.2-1.4-0.5-1.9s-0.8-0.6-1.5-0.6c-0.6,0-1.1,0.2-1.4,0.6
		S105.8,27.3,105.8,28.1z"/>
	<path class="st1" d="M115.3,25.7h-1.6v5.7h-1v-5.7h-1.1v-0.4l1.1-0.4v-0.4c0-1.6,0.7-2.4,2.1-2.4c0.3,0,0.7,0.1,1.2,0.2l-0.3,0.8
		c-0.4-0.1-0.7-0.2-1-0.2c-0.4,0-0.6,0.1-0.8,0.4s-0.3,0.6-0.3,1.2v0.4h1.6V25.7z"/>
	<path class="st1" d="M123.4,23.5c-0.9,0-1.7,0.3-2.2,0.9s-0.8,1.5-0.8,2.6c0,1.1,0.3,2,0.8,2.6s1.3,0.9,2.2,0.9
		c0.6,0,1.3-0.1,2-0.3v0.9c-0.6,0.2-1.3,0.3-2.2,0.3c-1.3,0-2.2-0.4-2.9-1.1s-1-1.9-1-3.3c0-0.9,0.2-1.7,0.5-2.3s0.8-1.2,1.4-1.5
		s1.4-0.5,2.2-0.5c0.9,0,1.7,0.2,2.4,0.5l-0.4,0.9C124.7,23.7,124,23.5,123.4,23.5z"/>
	<path class="st1" d="M132.7,28.1c0,1-0.3,1.9-0.8,2.5s-1.3,0.9-2.2,0.9c-0.6,0-1.1-0.1-1.5-0.4c-0.4-0.3-0.8-0.7-1-1.2
		s-0.4-1.1-0.4-1.8c0-1,0.3-1.9,0.8-2.4c0.5-0.6,1.2-0.9,2.2-0.9c0.9,0,1.6,0.3,2.1,0.9S132.7,27.1,132.7,28.1z M127.8,28.1
		c0,0.8,0.2,1.4,0.5,1.9c0.3,0.4,0.8,0.6,1.4,0.6s1.1-0.2,1.5-0.6s0.5-1.1,0.5-1.9c0-0.8-0.2-1.4-0.5-1.9s-0.8-0.6-1.5-0.6
		c-0.6,0-1.1,0.2-1.4,0.6C128,26.7,127.8,27.3,127.8,28.1z"/>
	<path class="st1" d="M137.3,24.8c0.3,0,0.5,0,0.8,0.1l-0.1,0.9c-0.3-0.1-0.5-0.1-0.7-0.1c-0.5,0-1,0.2-1.3,0.6s-0.6,0.9-0.6,1.6
		v3.4h-1v-6.4h0.8l0.1,1.2h0c0.2-0.4,0.5-0.7,0.9-1S136.9,24.8,137.3,24.8z"/>
	<path class="st1" d="M144.8,28.1c0,1-0.3,1.9-0.8,2.5s-1.3,0.9-2.2,0.9c-0.6,0-1.1-0.1-1.5-0.4s-0.8-0.7-1-1.2s-0.4-1.1-0.4-1.8
		c0-1,0.3-1.9,0.8-2.4s1.3-0.9,2.2-0.9c0.9,0,1.6,0.3,2.1,0.9S144.8,27.1,144.8,28.1z M139.9,28.1c0,0.8,0.2,1.4,0.5,1.9
		s0.8,0.6,1.4,0.6s1.1-0.2,1.5-0.6s0.5-1.1,0.5-1.9c0-0.8-0.2-1.4-0.5-1.9s-0.8-0.6-1.5-0.6c-0.6,0-1.1,0.2-1.4,0.6
		S139.9,27.3,139.9,28.1z"/>
	<path class="st1" d="M150.9,31.3v-4.2c0-0.5-0.1-0.9-0.4-1.2s-0.6-0.4-1.1-0.4c-0.7,0-1.2,0.2-1.5,0.5s-0.5,1-0.5,1.8v3.4h-1v-6.4
		h0.8l0.2,0.9h0c0.2-0.3,0.5-0.6,0.8-0.7s0.8-0.3,1.2-0.3c0.8,0,1.4,0.2,1.7,0.6s0.6,1,0.6,1.8v4.2H150.9z"/>
	<path class="st1" d="M157.9,31.3l-0.2-0.9h0c-0.3,0.4-0.6,0.7-1,0.8s-0.7,0.2-1.2,0.2c-0.6,0-1.1-0.2-1.5-0.5s-0.5-0.8-0.5-1.4
		c0-1.3,1-2,3.1-2l1.1,0v-0.4c0-0.5-0.1-0.9-0.3-1.1s-0.6-0.4-1-0.4c-0.5,0-1.1,0.2-1.8,0.5l-0.3-0.7c0.3-0.2,0.7-0.3,1-0.4
		s0.8-0.1,1.1-0.1c0.8,0,1.3,0.2,1.7,0.5s0.6,0.9,0.6,1.6v4.4H157.9z M155.7,30.6c0.6,0,1.1-0.2,1.4-0.5s0.5-0.8,0.5-1.4v-0.6l-1,0
		c-0.8,0-1.3,0.1-1.7,0.4s-0.5,0.5-0.5,1c0,0.4,0.1,0.6,0.3,0.8S155.3,30.6,155.7,30.6z"/>
	<path class="st1" d="M162,31.3l-2.4-6.4h1l1.4,3.8c0.3,0.9,0.5,1.5,0.6,1.7h0c0-0.2,0.2-0.6,0.4-1.3s0.7-2.1,1.5-4.3h1l-2.4,6.4
		H162z"/>
	<path class="st1" d="M166.5,23.2c0-0.2,0.1-0.4,0.2-0.5s0.2-0.2,0.4-0.2c0.2,0,0.3,0.1,0.4,0.2s0.2,0.3,0.2,0.5s-0.1,0.4-0.2,0.5
		s-0.2,0.2-0.4,0.2c-0.2,0-0.3-0.1-0.4-0.2S166.5,23.4,166.5,23.2z M167.6,31.3h-1v-6.4h1V31.3z"/>
	<path class="st1" d="M172.6,24.8c0.3,0,0.5,0,0.8,0.1l-0.1,0.9c-0.3-0.1-0.5-0.1-0.7-0.1c-0.5,0-1,0.2-1.3,0.6s-0.6,0.9-0.6,1.6
		v3.4h-1v-6.4h0.8l0.1,1.2h0c0.2-0.4,0.5-0.7,0.9-1S172.2,24.8,172.6,24.8z"/>
	<path class="st1" d="M175.4,24.9v4.2c0,0.5,0.1,0.9,0.4,1.2s0.6,0.4,1.1,0.4c0.7,0,1.2-0.2,1.5-0.6s0.5-1,0.5-1.8v-3.4h1v6.4H179
		l-0.1-0.9h-0.1c-0.2,0.3-0.5,0.6-0.8,0.7s-0.8,0.3-1.2,0.3c-0.8,0-1.4-0.2-1.8-0.6s-0.6-1-0.6-1.8v-4.2H175.4z"/>
	<path class="st1" d="M186,29.6c0,0.6-0.2,1.1-0.7,1.4s-1.1,0.5-1.9,0.5c-0.9,0-1.5-0.1-2-0.4v-0.9c0.3,0.2,0.6,0.3,1,0.4
		s0.7,0.1,1,0.1c0.5,0,0.9-0.1,1.2-0.2s0.4-0.4,0.4-0.7c0-0.3-0.1-0.5-0.3-0.6s-0.6-0.4-1.3-0.6c-0.6-0.2-1-0.4-1.3-0.6
		s-0.4-0.4-0.6-0.6s-0.2-0.5-0.2-0.8c0-0.5,0.2-0.9,0.6-1.2s1-0.5,1.8-0.5c0.7,0,1.4,0.1,2,0.4l-0.3,0.8c-0.6-0.3-1.2-0.4-1.8-0.4
		c-0.5,0-0.8,0.1-1,0.2s-0.4,0.3-0.4,0.6c0,0.2,0,0.3,0.1,0.4s0.2,0.2,0.4,0.3s0.6,0.3,1.1,0.5c0.8,0.3,1.3,0.6,1.5,0.8
		S186,29.1,186,29.6z"/>
</g>
<title>ionicons-v5-n</title>
<path class="st2" d="M28.8,10.1l-1.3-2.2c-0.3-0.6-1.1-0.8-1.7-0.4l-7.7,4.5c-0.1,0.1-0.3,0-0.4-0.1c0,0,0-0.1,0-0.2l0-8.9
	c0-0.7-0.6-1.3-1.3-1.3H14c-0.7,0-1.3,0.6-1.3,1.3l0,8.9c0,0.2-0.1,0.3-0.3,0.3c-0.1,0-0.1,0-0.2,0L4.6,7.4C4,7.1,3.3,7.3,2.9,7.9
	l-1.3,2.2c-0.3,0.6-0.1,1.3,0.4,1.6c0,0,0,0,0,0l7.7,4.5c0.1,0.1,0.2,0.3,0.1,0.4c0,0-0.1,0.1-0.1,0.1l-7.7,4.5
	c-0.6,0.3-0.8,1.1-0.4,1.6l1.3,2.2c0.3,0.6,1.1,0.8,1.7,0.4l7.7-4.5c0.1-0.1,0.3,0,0.4,0.1c0,0,0,0.1,0,0.2l0,8.9
	c0,0.7,0.6,1.3,1.3,1.3h2.5c0.7,0,1.3-0.6,1.3-1.3l0-8.9c0-0.2,0.1-0.3,0.3-0.3c0.1,0,0.1,0,0.2,0l7.7,4.5c0.6,0.3,1.3,0.1,1.7-0.4
	l1.3-2.2c0.3-0.6,0.1-1.3-0.4-1.6c0,0,0,0,0,0l-7.7-4.5c-0.1-0.1-0.2-0.3-0.1-0.4c0,0,0.1-0.1,0.1-0.1l7.7-4.5
	C29,11.4,29.2,10.7,28.8,10.1z"/>
</svg>
